<mxfile host="app.diagrams.net" modified="2022-02-23T13:01:59.408Z" agent="5.0 (Windows NT 10.0; Win64; x64) AppleWebKit/537.36 (KHTML, like Gecko) Chrome/98.0.4758.102 Safari/537.36" etag="Hnxp5obkyYKu27PeyqmW" version="16.6.1" type="github">
  <diagram id="wLRiIvhxcsEJ2ItH4nH1" name="Page-1">
    <mxGraphModel dx="3134" dy="1198" grid="1" gridSize="10" guides="1" tooltips="1" connect="1" arrows="1" fold="1" page="1" pageScale="1" pageWidth="827" pageHeight="1000" math="0" shadow="0">
      <root>
        <mxCell id="0" />
        <mxCell id="1" parent="0" />
        <mxCell id="iJASSfzqV1std0jk-NcT-6" value="Cliente" style="swimlane;html=1;startSize=20;fontStyle=0;collapsible=0;horizontal=0;swimlaneLine=1;swimlaneFillColor=#ffffff;strokeWidth=2;" vertex="1" parent="1">
          <mxGeometry x="-670" y="240" width="1290" height="237" as="geometry" />
        </mxCell>
        <mxCell id="iJASSfzqV1std0jk-NcT-10" value="" style="points=[[0.145,0.145,0],[0.5,0,0],[0.855,0.145,0],[1,0.5,0],[0.855,0.855,0],[0.5,1,0],[0.145,0.855,0],[0,0.5,0]];shape=mxgraph.bpmn.event;html=1;verticalLabelPosition=bottom;labelBackgroundColor=#ffffff;verticalAlign=top;align=center;perimeter=ellipsePerimeter;outlineConnect=0;aspect=fixed;outline=standard;symbol=general;" vertex="1" parent="iJASSfzqV1std0jk-NcT-6">
          <mxGeometry x="86.5" y="50" width="17" height="17" as="geometry" />
        </mxCell>
        <mxCell id="iJASSfzqV1std0jk-NcT-24" value="" style="edgeStyle=orthogonalEdgeStyle;rounded=0;orthogonalLoop=1;jettySize=auto;html=1;strokeWidth=1;" edge="1" parent="iJASSfzqV1std0jk-NcT-6" source="iJASSfzqV1std0jk-NcT-13" target="iJASSfzqV1std0jk-NcT-38">
          <mxGeometry relative="1" as="geometry">
            <mxPoint x="287" y="62" as="targetPoint" />
          </mxGeometry>
        </mxCell>
        <mxCell id="iJASSfzqV1std0jk-NcT-13" value="Proceso de pago" style="points=[[0.25,0,0],[0.5,0,0],[0.75,0,0],[1,0.25,0],[1,0.5,0],[1,0.75,0],[0.75,1,0],[0.5,1,0],[0.25,1,0],[0,0.75,0],[0,0.5,0],[0,0.25,0]];shape=mxgraph.bpmn.task;whiteSpace=wrap;rectStyle=rounded;size=10;taskMarker=abstract;" vertex="1" parent="iJASSfzqV1std0jk-NcT-6">
          <mxGeometry x="160" y="40" width="80" height="44" as="geometry" />
        </mxCell>
        <mxCell id="iJASSfzqV1std0jk-NcT-25" value="Crea cuenta" style="points=[[0.25,0,0],[0.5,0,0],[0.75,0,0],[1,0.25,0],[1,0.5,0],[1,0.75,0],[0.75,1,0],[0.5,1,0],[0.25,1,0],[0,0.75,0],[0,0.5,0],[0,0.25,0]];shape=mxgraph.bpmn.task;whiteSpace=wrap;rectStyle=rounded;size=10;taskMarker=abstract;" vertex="1" parent="iJASSfzqV1std0jk-NcT-6">
          <mxGeometry x="730" y="40" width="80" height="44" as="geometry" />
        </mxCell>
        <mxCell id="iJASSfzqV1std0jk-NcT-44" style="edgeStyle=orthogonalEdgeStyle;rounded=0;orthogonalLoop=1;jettySize=auto;html=1;entryX=0;entryY=0.5;entryDx=0;entryDy=0;entryPerimeter=0;strokeWidth=1;endArrow=none;endFill=0;" edge="1" parent="iJASSfzqV1std0jk-NcT-6" source="iJASSfzqV1std0jk-NcT-38" target="iJASSfzqV1std0jk-NcT-41">
          <mxGeometry relative="1" as="geometry" />
        </mxCell>
        <mxCell id="iJASSfzqV1std0jk-NcT-38" value="Pago" style="points=[[0.25,0,0],[0.5,0,0],[0.75,0,0],[1,0.25,0],[1,0.5,0],[1,0.75,0],[0.75,1,0],[0.5,1,0],[0.25,1,0],[0,0.75,0],[0,0.5,0],[0,0.25,0]];shape=mxgraph.bpmn.task;whiteSpace=wrap;rectStyle=rounded;size=10;taskMarker=abstract;bpmnShapeType=transaction;" vertex="1" parent="iJASSfzqV1std0jk-NcT-6">
          <mxGeometry x="380" y="37" width="75" height="50" as="geometry" />
        </mxCell>
        <mxCell id="iJASSfzqV1std0jk-NcT-45" value="" style="edgeStyle=orthogonalEdgeStyle;rounded=0;orthogonalLoop=1;jettySize=auto;html=1;strokeWidth=1;" edge="1" parent="iJASSfzqV1std0jk-NcT-6" source="iJASSfzqV1std0jk-NcT-41" target="iJASSfzqV1std0jk-NcT-25">
          <mxGeometry relative="1" as="geometry" />
        </mxCell>
        <mxCell id="iJASSfzqV1std0jk-NcT-41" value="" style="points=[[0.25,0.25,0],[0.5,0,0],[0.75,0.25,0],[1,0.5,0],[0.75,0.75,0],[0.5,1,0],[0.25,0.75,0],[0,0.5,0]];shape=mxgraph.bpmn.gateway2;html=1;verticalLabelPosition=bottom;labelBackgroundColor=#ffffff;verticalAlign=top;align=center;perimeter=rhombusPerimeter;outlineConnect=0;outline=none;symbol=none;gwType=complex;" vertex="1" parent="iJASSfzqV1std0jk-NcT-6">
          <mxGeometry x="500" y="47" width="30" height="30" as="geometry" />
        </mxCell>
        <mxCell id="iJASSfzqV1std0jk-NcT-53" value="Se envia actualizaciÃ³n del pago" style="points=[[0.25,0,0],[0.5,0,0],[0.75,0,0],[1,0.25,0],[1,0.5,0],[1,0.75,0],[0.75,1,0],[0.5,1,0],[0.25,1,0],[0,0.75,0],[0,0.5,0],[0,0.25,0]];shape=mxgraph.bpmn.task;whiteSpace=wrap;rectStyle=rounded;size=10;taskMarker=abstract;" vertex="1" parent="iJASSfzqV1std0jk-NcT-6">
          <mxGeometry x="600" y="140" width="80" height="47" as="geometry" />
        </mxCell>
        <mxCell id="iJASSfzqV1std0jk-NcT-79" style="edgeStyle=orthogonalEdgeStyle;rounded=0;orthogonalLoop=1;jettySize=auto;html=1;startArrow=none;startFill=0;endArrow=classic;endFill=1;strokeWidth=1;" edge="1" parent="iJASSfzqV1std0jk-NcT-6" source="iJASSfzqV1std0jk-NcT-76" target="iJASSfzqV1std0jk-NcT-78">
          <mxGeometry relative="1" as="geometry" />
        </mxCell>
        <mxCell id="iJASSfzqV1std0jk-NcT-76" value="El usuario recibe notificaciones&lt;br&gt;de las actualizaciones de proceso" style="points=[[0.145,0.145,0],[0.5,0,0],[0.855,0.145,0],[1,0.5,0],[0.855,0.855,0],[0.5,1,0],[0.145,0.855,0],[0,0.5,0]];shape=mxgraph.bpmn.event;html=1;verticalLabelPosition=top;labelBackgroundColor=#ffffff;verticalAlign=bottom;align=center;perimeter=ellipsePerimeter;outlineConnect=0;aspect=fixed;outline=catching;symbol=message;labelPosition=center;" vertex="1" parent="iJASSfzqV1std0jk-NcT-6">
          <mxGeometry x="1052.5" y="50" width="27" height="27" as="geometry" />
        </mxCell>
        <mxCell id="iJASSfzqV1std0jk-NcT-78" value="" style="points=[[0.145,0.145,0],[0.5,0,0],[0.855,0.145,0],[1,0.5,0],[0.855,0.855,0],[0.5,1,0],[0.145,0.855,0],[0,0.5,0]];shape=mxgraph.bpmn.event;html=1;verticalLabelPosition=bottom;labelBackgroundColor=#ffffff;verticalAlign=top;align=center;perimeter=ellipsePerimeter;outlineConnect=0;aspect=fixed;outline=end;symbol=terminate;" vertex="1" parent="iJASSfzqV1std0jk-NcT-6">
          <mxGeometry x="1200" y="48.5" width="30" height="30" as="geometry" />
        </mxCell>
        <mxCell id="iJASSfzqV1std0jk-NcT-7" value="Sistema" style="swimlane;html=1;startSize=20;fontStyle=0;collapsible=0;horizontal=0;swimlaneLine=1;swimlaneFillColor=#ffffff;strokeWidth=2;" vertex="1" parent="1">
          <mxGeometry x="-670" y="467" width="1290" height="146" as="geometry" />
        </mxCell>
        <mxCell id="iJASSfzqV1std0jk-NcT-30" value="" style="edgeStyle=orthogonalEdgeStyle;rounded=0;orthogonalLoop=1;jettySize=auto;html=1;strokeWidth=1;" edge="1" parent="iJASSfzqV1std0jk-NcT-7" source="iJASSfzqV1std0jk-NcT-9" target="iJASSfzqV1std0jk-NcT-29">
          <mxGeometry relative="1" as="geometry" />
        </mxCell>
        <mxCell id="iJASSfzqV1std0jk-NcT-9" value="Demanda &lt;br&gt;enviada via webform" style="points=[[0.145,0.145,0],[0.5,0,0],[0.855,0.145,0],[1,0.5,0],[0.855,0.855,0],[0.5,1,0],[0.145,0.855,0],[0,0.5,0]];shape=mxgraph.bpmn.event;html=1;verticalLabelPosition=bottom;labelBackgroundColor=#ffffff;verticalAlign=top;align=center;perimeter=ellipsePerimeter;outlineConnect=0;aspect=fixed;outline=standard;symbol=message;" vertex="1" parent="iJASSfzqV1std0jk-NcT-7">
          <mxGeometry x="85" y="46" width="20" height="20" as="geometry" />
        </mxCell>
        <mxCell id="iJASSfzqV1std0jk-NcT-65" value="" style="edgeStyle=orthogonalEdgeStyle;rounded=0;orthogonalLoop=1;jettySize=auto;html=1;startArrow=none;startFill=0;endArrow=classic;endFill=1;strokeWidth=1;" edge="1" parent="iJASSfzqV1std0jk-NcT-7" source="iJASSfzqV1std0jk-NcT-27" target="iJASSfzqV1std0jk-NcT-64">
          <mxGeometry relative="1" as="geometry" />
        </mxCell>
        <mxCell id="iJASSfzqV1std0jk-NcT-27" value="Acceso a las actualizaciones del proceso" style="points=[[0.25,0,0],[0.5,0,0],[0.75,0,0],[1,0.25,0],[1,0.5,0],[1,0.75,0],[0.75,1,0],[0.5,1,0],[0.25,1,0],[0,0.75,0],[0,0.5,0],[0,0.25,0]];shape=mxgraph.bpmn.task;whiteSpace=wrap;rectStyle=rounded;size=10;taskMarker=abstract;" vertex="1" parent="iJASSfzqV1std0jk-NcT-7">
          <mxGeometry x="720" y="35.5" width="100" height="44" as="geometry" />
        </mxCell>
        <mxCell id="iJASSfzqV1std0jk-NcT-39" style="edgeStyle=orthogonalEdgeStyle;rounded=0;orthogonalLoop=1;jettySize=auto;html=1;entryX=0;entryY=0.5;entryDx=0;entryDy=0;entryPerimeter=0;strokeWidth=1;" edge="1" parent="iJASSfzqV1std0jk-NcT-7" source="iJASSfzqV1std0jk-NcT-29" target="iJASSfzqV1std0jk-NcT-37">
          <mxGeometry relative="1" as="geometry" />
        </mxCell>
        <mxCell id="iJASSfzqV1std0jk-NcT-29" value="" style="points=[[0.25,0.25,0],[0.5,0,0],[0.75,0.25,0],[1,0.5,0],[0.75,0.75,0],[0.5,1,0],[0.25,0.75,0],[0,0.5,0]];shape=mxgraph.bpmn.gateway2;html=1;verticalLabelPosition=bottom;labelBackgroundColor=#ffffff;verticalAlign=top;align=center;perimeter=rhombusPerimeter;outlineConnect=0;outline=none;symbol=none;gwType=complex;" vertex="1" parent="iJASSfzqV1std0jk-NcT-7">
          <mxGeometry x="187" y="43" width="26" height="26" as="geometry" />
        </mxCell>
        <mxCell id="iJASSfzqV1std0jk-NcT-37" value="Se crea el formato de la demanda" style="points=[[0.25,0,0],[0.5,0,0],[0.75,0,0],[1,0.25,0],[1,0.5,0],[1,0.75,0],[0.75,1,0],[0.5,1,0],[0.25,1,0],[0,0.75,0],[0,0.5,0],[0,0.25,0]];shape=mxgraph.bpmn.task;whiteSpace=wrap;rectStyle=rounded;size=10;taskMarker=abstract;" vertex="1" parent="iJASSfzqV1std0jk-NcT-7">
          <mxGeometry x="287" y="34" width="80" height="44" as="geometry" />
        </mxCell>
        <mxCell id="iJASSfzqV1std0jk-NcT-49" value="Tablero de pagos" style="points=[[0.25,0,0],[0.5,0,0],[0.75,0,0],[1,0.25,0],[1,0.5,0],[1,0.75,0],[0.75,1,0],[0.5,1,0],[0.25,1,0],[0,0.75,0],[0,0.5,0],[0,0.25,0]];shape=mxgraph.bpmn.task;whiteSpace=wrap;rectStyle=rounded;size=10;taskMarker=abstract;" vertex="1" parent="iJASSfzqV1std0jk-NcT-7">
          <mxGeometry x="600" y="34" width="80" height="47" as="geometry" />
        </mxCell>
        <mxCell id="iJASSfzqV1std0jk-NcT-73" style="edgeStyle=orthogonalEdgeStyle;rounded=0;orthogonalLoop=1;jettySize=auto;html=1;entryX=0;entryY=0.5;entryDx=0;entryDy=0;entryPerimeter=0;startArrow=none;startFill=0;endArrow=classic;endFill=1;strokeWidth=1;dashed=1;" edge="1" parent="iJASSfzqV1std0jk-NcT-7" source="iJASSfzqV1std0jk-NcT-64" target="iJASSfzqV1std0jk-NcT-72">
          <mxGeometry relative="1" as="geometry" />
        </mxCell>
        <mxCell id="iJASSfzqV1std0jk-NcT-64" value="InformaciÃ³n del proceso" style="points=[[0.25,0,0],[0.5,0,0],[0.75,0,0],[1,0.25,0],[1,0.5,0],[1,0.75,0],[0.75,1,0],[0.5,1,0],[0.25,1,0],[0,0.75,0],[0,0.5,0],[0,0.25,0]];shape=mxgraph.bpmn.task;whiteSpace=wrap;rectStyle=rounded;size=10;taskMarker=abstract;" vertex="1" parent="iJASSfzqV1std0jk-NcT-7">
          <mxGeometry x="880" y="35.5" width="100" height="44" as="geometry" />
        </mxCell>
        <mxCell id="iJASSfzqV1std0jk-NcT-72" value="Se notifica sobre&amp;nbsp;&lt;br&gt;las actualizaciones" style="points=[[0.145,0.145,0],[0.5,0,0],[0.855,0.145,0],[1,0.5,0],[0.855,0.855,0],[0.5,1,0],[0.145,0.855,0],[0,0.5,0]];shape=mxgraph.bpmn.event;html=1;verticalLabelPosition=bottom;labelBackgroundColor=#ffffff;verticalAlign=top;align=center;perimeter=ellipsePerimeter;outlineConnect=0;aspect=fixed;outline=throwing;symbol=message;" vertex="1" parent="iJASSfzqV1std0jk-NcT-7">
          <mxGeometry x="1050" y="41.5" width="32" height="32" as="geometry" />
        </mxCell>
        <mxCell id="iJASSfzqV1std0jk-NcT-8" value="Administrador" style="swimlane;html=1;startSize=20;fontStyle=0;collapsible=0;horizontal=0;swimlaneLine=1;swimlaneFillColor=#ffffff;strokeWidth=2;" vertex="1" parent="1">
          <mxGeometry x="-670" y="613" width="1290" height="130" as="geometry" />
        </mxCell>
        <mxCell id="iJASSfzqV1std0jk-NcT-35" value="NotificaciÃ³n&amp;nbsp;&lt;br&gt;de nueva demanda" style="points=[[0.145,0.145,0],[0.5,0,0],[0.855,0.145,0],[1,0.5,0],[0.855,0.855,0],[0.5,1,0],[0.145,0.855,0],[0,0.5,0]];shape=mxgraph.bpmn.event;html=1;verticalLabelPosition=bottom;labelBackgroundColor=#ffffff;verticalAlign=top;align=center;perimeter=ellipsePerimeter;outlineConnect=0;aspect=fixed;outline=throwing;symbol=message;" vertex="1" parent="iJASSfzqV1std0jk-NcT-8">
          <mxGeometry x="190" y="40" width="20" height="20" as="geometry" />
        </mxCell>
        <mxCell id="iJASSfzqV1std0jk-NcT-52" value="" style="edgeStyle=orthogonalEdgeStyle;rounded=0;orthogonalLoop=1;jettySize=auto;html=1;strokeWidth=1;" edge="1" parent="iJASSfzqV1std0jk-NcT-8" source="iJASSfzqV1std0jk-NcT-46" target="iJASSfzqV1std0jk-NcT-51">
          <mxGeometry relative="1" as="geometry" />
        </mxCell>
        <mxCell id="iJASSfzqV1std0jk-NcT-46" value="Recibe notificaciÃ³n&lt;br&gt;&amp;nbsp;del pago" style="points=[[0.145,0.145,0],[0.5,0,0],[0.855,0.145,0],[1,0.5,0],[0.855,0.855,0],[0.5,1,0],[0.145,0.855,0],[0,0.5,0]];shape=mxgraph.bpmn.event;html=1;verticalLabelPosition=bottom;labelBackgroundColor=#ffffff;verticalAlign=top;align=center;perimeter=ellipsePerimeter;outlineConnect=0;aspect=fixed;outline=catching;symbol=message;" vertex="1" parent="iJASSfzqV1std0jk-NcT-8">
          <mxGeometry x="502" y="46" width="26" height="26" as="geometry" />
        </mxCell>
        <mxCell id="iJASSfzqV1std0jk-NcT-60" value="" style="edgeStyle=orthogonalEdgeStyle;rounded=0;orthogonalLoop=1;jettySize=auto;html=1;startArrow=none;startFill=0;endArrow=classic;endFill=1;strokeWidth=1;entryX=-0.025;entryY=0.421;entryDx=0;entryDy=0;entryPerimeter=0;" edge="1" parent="iJASSfzqV1std0jk-NcT-8" source="iJASSfzqV1std0jk-NcT-51" target="iJASSfzqV1std0jk-NcT-69">
          <mxGeometry relative="1" as="geometry">
            <mxPoint x="870" y="59" as="targetPoint" />
          </mxGeometry>
        </mxCell>
        <mxCell id="iJASSfzqV1std0jk-NcT-51" value="Revisa el pago en el dashboard" style="points=[[0.25,0,0],[0.5,0,0],[0.75,0,0],[1,0.25,0],[1,0.5,0],[1,0.75,0],[0.75,1,0],[0.5,1,0],[0.25,1,0],[0,0.75,0],[0,0.5,0],[0,0.25,0]];shape=mxgraph.bpmn.task;whiteSpace=wrap;rectStyle=rounded;size=10;taskMarker=abstract;" vertex="1" parent="iJASSfzqV1std0jk-NcT-8">
          <mxGeometry x="600" y="35.5" width="80" height="47" as="geometry" />
        </mxCell>
        <mxCell id="iJASSfzqV1std0jk-NcT-69" value="Actualiza el proceso y deja comentarios" style="points=[[0.25,0,0],[0.5,0,0],[0.75,0,0],[1,0.25,0],[1,0.5,0],[1,0.75,0],[0.75,1,0],[0.5,1,0],[0.25,1,0],[0,0.75,0],[0,0.5,0],[0,0.25,0]];shape=mxgraph.bpmn.task;whiteSpace=wrap;rectStyle=rounded;size=10;taskMarker=abstract;" vertex="1" parent="iJASSfzqV1std0jk-NcT-8">
          <mxGeometry x="890" y="40" width="90" height="47" as="geometry" />
        </mxCell>
        <mxCell id="iJASSfzqV1std0jk-NcT-11" value="" style="edgeStyle=orthogonalEdgeStyle;rounded=0;orthogonalLoop=1;jettySize=auto;html=1;dashed=1;dashPattern=1 2;strokeWidth=1;" edge="1" parent="1" source="iJASSfzqV1std0jk-NcT-10" target="iJASSfzqV1std0jk-NcT-9">
          <mxGeometry relative="1" as="geometry" />
        </mxCell>
        <mxCell id="iJASSfzqV1std0jk-NcT-32" style="edgeStyle=orthogonalEdgeStyle;rounded=0;orthogonalLoop=1;jettySize=auto;html=1;strokeWidth=1;" edge="1" parent="1" source="iJASSfzqV1std0jk-NcT-29" target="iJASSfzqV1std0jk-NcT-13">
          <mxGeometry relative="1" as="geometry" />
        </mxCell>
        <mxCell id="iJASSfzqV1std0jk-NcT-36" style="edgeStyle=orthogonalEdgeStyle;rounded=0;orthogonalLoop=1;jettySize=auto;html=1;entryX=0.5;entryY=0;entryDx=0;entryDy=0;entryPerimeter=0;strokeWidth=1;" edge="1" parent="1" source="iJASSfzqV1std0jk-NcT-29" target="iJASSfzqV1std0jk-NcT-35">
          <mxGeometry relative="1" as="geometry" />
        </mxCell>
        <mxCell id="iJASSfzqV1std0jk-NcT-28" value="" style="edgeStyle=orthogonalEdgeStyle;rounded=0;orthogonalLoop=1;jettySize=auto;html=1;strokeWidth=1;" edge="1" parent="1" source="iJASSfzqV1std0jk-NcT-25" target="iJASSfzqV1std0jk-NcT-27">
          <mxGeometry relative="1" as="geometry" />
        </mxCell>
        <mxCell id="iJASSfzqV1std0jk-NcT-48" style="edgeStyle=orthogonalEdgeStyle;rounded=0;orthogonalLoop=1;jettySize=auto;html=1;strokeWidth=1;" edge="1" parent="1" source="iJASSfzqV1std0jk-NcT-41" target="iJASSfzqV1std0jk-NcT-46">
          <mxGeometry relative="1" as="geometry" />
        </mxCell>
        <mxCell id="iJASSfzqV1std0jk-NcT-50" style="edgeStyle=orthogonalEdgeStyle;rounded=0;orthogonalLoop=1;jettySize=auto;html=1;strokeWidth=1;dashed=1;startArrow=oval;startFill=0;endArrow=none;endFill=0;" edge="1" parent="1" source="iJASSfzqV1std0jk-NcT-41">
          <mxGeometry relative="1" as="geometry">
            <mxPoint x="-30" y="370" as="targetPoint" />
            <Array as="points">
              <mxPoint x="-140" y="320" />
              <mxPoint x="-30" y="320" />
            </Array>
          </mxGeometry>
        </mxCell>
        <mxCell id="iJASSfzqV1std0jk-NcT-56" style="edgeStyle=orthogonalEdgeStyle;rounded=0;orthogonalLoop=1;jettySize=auto;html=1;entryX=0.5;entryY=0;entryDx=0;entryDy=0;entryPerimeter=0;dashed=1;startArrow=none;startFill=0;strokeWidth=1;" edge="1" parent="1" source="iJASSfzqV1std0jk-NcT-53" target="iJASSfzqV1std0jk-NcT-49">
          <mxGeometry relative="1" as="geometry" />
        </mxCell>
        <mxCell id="iJASSfzqV1std0jk-NcT-57" style="edgeStyle=orthogonalEdgeStyle;rounded=0;orthogonalLoop=1;jettySize=auto;html=1;dashed=1;startArrow=oval;startFill=0;strokeWidth=1;" edge="1" parent="1" source="iJASSfzqV1std0jk-NcT-51" target="iJASSfzqV1std0jk-NcT-49">
          <mxGeometry relative="1" as="geometry" />
        </mxCell>
        <mxCell id="iJASSfzqV1std0jk-NcT-70" style="edgeStyle=orthogonalEdgeStyle;rounded=0;orthogonalLoop=1;jettySize=auto;html=1;entryX=0.548;entryY=1.011;entryDx=0;entryDy=0;entryPerimeter=0;startArrow=none;startFill=0;endArrow=classic;endFill=1;strokeWidth=1;" edge="1" parent="1" source="iJASSfzqV1std0jk-NcT-69" target="iJASSfzqV1std0jk-NcT-64">
          <mxGeometry relative="1" as="geometry" />
        </mxCell>
        <mxCell id="iJASSfzqV1std0jk-NcT-77" style="edgeStyle=orthogonalEdgeStyle;rounded=0;orthogonalLoop=1;jettySize=auto;html=1;entryX=0.5;entryY=1;entryDx=0;entryDy=0;entryPerimeter=0;dashed=1;startArrow=none;startFill=0;endArrow=classic;endFill=1;strokeWidth=1;" edge="1" parent="1" source="iJASSfzqV1std0jk-NcT-72" target="iJASSfzqV1std0jk-NcT-76">
          <mxGeometry relative="1" as="geometry" />
        </mxCell>
      </root>
    </mxGraphModel>
  </diagram>
</mxfile>
